# Blender v2.82 (sub 7) OBJ File: 'Dungeon_level_parts_01.blend'
# www.blender.org
mtllib Column_04.mtl
o column_04_Cube.009
v -0.210044 0.339037 0.210044
v -0.210044 0.339037 -0.210044
v 0.210044 0.339037 0.210044
v 0.210044 0.339037 -0.210044
v -0.210044 0.000000 0.210044
v -0.210044 0.000000 -0.210044
v 0.210044 0.000000 -0.210044
v 0.210044 0.000000 0.210044
v -0.210044 2.007683 0.210044
v -0.210044 2.007683 -0.210044
v 0.210044 2.007683 -0.210044
v 0.210044 2.007683 0.210044
v -0.210044 1.668645 -0.210044
v -0.210044 1.668645 0.210044
v 0.210044 1.668645 -0.210044
v 0.210044 1.668645 0.210044
v 0.157037 1.601721 0.157037
v 0.157037 1.601721 -0.157037
v -0.157037 1.601721 0.157037
v -0.157037 1.601721 -0.157037
v 0.157037 0.405961 -0.157037
v 0.157037 0.405961 0.157037
v -0.157037 0.405961 -0.157037
v -0.157037 0.405961 0.157037
v -0.131048 0.400940 0.114214
v -0.131048 0.400940 -0.114214
v 0.131048 0.400940 -0.114214
v 0.131048 0.400940 0.114214
v -0.131048 1.604542 0.114214
v -0.131048 1.604542 -0.114214
v 0.131048 1.604542 -0.114214
v 0.131048 1.604542 0.114214
v -0.163797 2.065885 0.163797
v -0.163797 2.065885 -0.163796
v 0.163797 2.065885 -0.163796
v 0.163797 2.065885 0.163797
vt 0.500000 0.000000
vt 0.625000 0.000000
vt 0.625000 0.250000
vt 0.500000 0.250000
vt 0.500000 0.500000
vt 0.625000 0.500000
vt 0.625000 0.750000
vt 0.500000 0.750000
vt 0.625000 1.000000
vt 0.500000 1.000000
vt 0.625000 0.500000
vt 0.625000 0.750000
vt 0.500000 0.750000
vt 0.625000 0.750000
vt 0.625000 1.000000
vt 0.500000 1.000000
vt 0.500000 0.500000
vt 0.625000 0.500000
vt 0.625000 0.500000
vt 0.625000 0.750000
vt 0.500000 0.000000
vt 0.625000 0.000000
vt 0.625000 0.250000
vt 0.500000 0.250000
vt 0.625000 1.000000
vt 0.625000 0.000000
vt 0.625000 0.250000
vt 0.875000 0.500000
vt 0.875000 0.750000
vt 0.625000 1.000000
vt 0.625000 0.000000
vt 0.625000 0.250000
vt 0.875000 0.500000
vt 0.875000 0.750000
vt 0.000000 0.000000
vt 0.000000 0.000000
vt 0.000000 0.000000
vt 0.000000 0.000000
vt 0.000000 0.000000
vt 0.000000 0.000000
vt 0.000000 0.000000
vt 0.000000 0.000000
vt 0.500000 1.000000
vt 0.500000 0.750000
vt 0.500000 0.500000
vt 0.500000 0.250000
vt 0.500000 0.000000
vn -1.0000 0.0000 0.0000
vn 1.0000 0.0000 0.0000
vn 0.0000 0.0000 1.0000
vn 0.7839 0.6209 0.0000
vn -0.7839 -0.6209 -0.0000
vn 0.0000 -0.6209 0.7839
vn 0.7839 -0.6209 -0.0000
vn 0.0000 1.0000 0.0000
vn 0.0000 0.6209 0.7839
vn -0.7839 0.6209 0.0000
vn 0.0000 -1.0000 0.0000
vn 0.0000 0.6221 0.7829
vn -0.7829 0.6221 0.0000
vn 0.7829 0.6221 0.0000
usemtl None
s off
f 5/1/1 1/2/1 2/3/1 6/4/1
f 7/5/2 4/6/2 3/7/2 8/8/2
f 8/8/3 3/7/3 1/9/3 5/10/3
f 3/7/4 4/6/4 21/11/4 22/12/4
f 9/13/3 14/14/3 16/15/3 12/16/3
f 10/17/1 13/18/1 14/14/1 9/13/1
f 14/14/5 13/18/5 20/19/5 19/20/5
f 12/21/2 16/22/2 15/23/2 11/24/2
f 16/15/6 14/14/6 19/20/6 17/25/6
f 15/23/7 16/22/7 17/26/7 18/27/7
f 21/11/8 23/28/8 24/29/8 22/12/8
f 1/9/9 3/7/9 22/12/9 24/30/9
f 2/3/10 1/2/10 24/31/10 23/32/10
f 20/19/11 18/33/11 17/34/11 19/20/11
f 25/35/3 28/36/3 32/37/3 29/38/3
f 26/39/1 25/35/1 29/38/1 30/40/1
f 28/36/2 27/41/2 31/42/2 32/37/2
f 9/13/12 12/16/12 36/43/12 33/44/12
f 10/17/13 9/13/13 33/44/13 34/45/13
f 12/21/14 11/24/14 35/46/14 36/47/14
f 36/43/8 35/46/8 34/45/8 33/44/8
