# Blender v2.82 (sub 7) OBJ File: 'Dungeon_level_parts.blend'
# www.blender.org
mtllib Column_03.mtl
o column_03_Cube.011
v -0.210044 0.061782 0.210044
v -0.210044 0.061782 -0.210044
v 0.210044 0.061782 0.210044
v 0.210044 0.061782 -0.210044
v -0.210044 0.000000 0.210044
v -0.210044 0.000000 -0.210044
v 0.210044 0.000000 -0.210044
v 0.210044 0.000000 0.210044
v -0.153738 0.051682 0.153738
v -0.153738 0.051682 -0.153738
v 0.153738 0.051682 -0.153738
v 0.153738 0.051682 0.153738
v -0.153738 0.312070 0.153738
v -0.153738 0.312070 -0.153738
v 0.153738 0.312070 -0.153738
v 0.153738 0.312070 0.153738
v -0.210044 0.367768 0.210044
v -0.210044 0.367768 -0.210044
v 0.210044 0.367768 0.210044
v 0.210044 0.367768 -0.210044
v -0.210044 0.305985 0.210044
v -0.210044 0.305985 -0.210044
v 0.210044 0.305985 -0.210044
v 0.210044 0.305985 0.210044
v -0.153738 0.360869 0.153738
v -0.153738 0.360869 -0.153738
v 0.153738 0.360869 -0.153738
v 0.153738 0.360869 0.153738
v -0.114214 0.491580 0.114214
v -0.114214 0.491580 -0.114214
v 0.114214 0.491580 -0.114214
v 0.114214 0.491580 0.114214
v -0.151086 0.487270 0.151086
v -0.151086 0.487270 -0.151086
v 0.151086 0.487270 0.151086
v 0.151086 0.487270 -0.151086
v -0.151086 0.519404 0.151086
v -0.151086 0.519404 -0.151086
v 0.151086 0.519404 -0.151086
v 0.151086 0.519404 0.151086
v -0.114214 0.513146 0.114214
v -0.114214 0.513146 -0.114214
v 0.114214 0.513146 -0.114214
v 0.114214 0.513146 0.114214
v -0.114214 0.963268 -0.114214
v 0.114214 0.943557 -0.114214
v -0.114214 0.904907 0.114214
v 0.114214 0.840047 0.114214
v 0.039881 0.887436 0.114214
v 0.114214 0.900351 0.056199
vt 0.500000 0.000000
vt 0.625000 0.000000
vt 0.625000 0.250000
vt 0.500000 0.250000
vt 0.500000 0.500000
vt 0.625000 0.500000
vt 0.625000 0.750000
vt 0.500000 0.750000
vt 0.625000 1.000000
vt 0.500000 1.000000
vt 0.875000 0.500000
vt 0.875000 0.750000
vt 0.000000 0.000000
vt 0.000000 0.000000
vt 0.000000 0.000000
vt 0.000000 0.000000
vt 0.000000 0.000000
vt 0.000000 0.000000
vt 0.000000 0.000000
vt 0.000000 0.000000
vt 0.500000 0.000000
vt 0.625000 0.000000
vt 0.625000 0.250000
vt 0.500000 0.250000
vt 0.500000 0.500000
vt 0.625000 0.500000
vt 0.625000 0.750000
vt 0.500000 0.750000
vt 0.625000 1.000000
vt 0.500000 1.000000
vt 0.875000 0.500000
vt 0.875000 0.750000
vt 0.000000 0.000000
vt 0.000000 0.000000
vt 0.000000 0.000000
vt 0.000000 0.000000
vt 0.000000 0.000000
vt 0.000000 0.000000
vt 0.000000 0.000000
vt 0.000000 0.000000
vt 0.500000 0.750000
vt 0.500000 0.500000
vt 0.500000 0.250000
vt 0.500000 0.000000
vt 0.625000 0.250000
vt 0.625000 0.000000
vt 0.625000 0.750000
vt 0.625000 0.500000
vt 0.500000 1.000000
vt 0.625000 1.000000
vt 0.000000 0.000000
vt 0.000000 0.000000
vt 0.000000 0.000000
vt 0.000000 0.000000
vt 0.000000 0.000000
vt 0.000000 0.000000
vt 0.000000 0.000000
vt 0.000000 0.000000
vt 0.000000 0.000000
vt 0.000000 0.000000
vn -1.0000 0.0000 0.0000
vn 1.0000 0.0000 0.0000
vn 0.0000 0.0000 1.0000
vn 0.0000 1.0000 0.0000
vn 0.0000 0.2894 0.9572
vn -0.9572 0.2894 0.0000
vn 0.9572 0.2894 0.0000
vn 0.0833 0.9655 0.2467
vn 0.4043 0.6341 0.6591
vn 0.0862 0.9606 0.2641
usemtl None
s off
f 5/1/1 1/2/1 2/3/1 6/4/1
f 7/5/2 4/6/2 3/7/2 8/8/2
f 8/8/3 3/7/3 1/9/3 5/10/3
f 4/6/4 2/11/4 1/12/4 3/7/4
f 9/13/1 13/14/1 14/15/1 10/16/1
f 11/17/2 15/18/2 16/19/2 12/20/2
f 12/20/3 16/19/3 13/14/3 9/13/3
f 21/21/1 17/22/1 18/23/1 22/24/1
f 23/25/2 20/26/2 19/27/2 24/28/2
f 24/28/3 19/27/3 17/29/3 21/30/3
f 20/26/4 18/31/4 17/32/4 19/27/4
f 28/33/5 32/34/5 29/35/5 25/36/5
f 25/36/6 29/35/6 30/37/6 26/38/6
f 27/39/7 31/40/7 32/34/7 28/33/7
f 40/41/4 39/42/4 38/43/4 37/44/4
f 37/44/1 38/43/1 34/45/1 33/46/1
f 39/42/2 40/41/2 35/47/2 36/48/2
f 40/41/3 37/49/3 33/50/3 35/47/3
f 45/51/8 47/52/8 46/53/8
f 44/54/2 43/55/2 46/53/2 50/56/2 48/57/2
f 42/58/1 41/59/1 47/52/1 45/51/1
f 41/59/3 49/60/3 47/52/3
f 48/57/9 50/56/9 49/60/9
f 49/60/3 41/59/3 44/54/3 48/57/3
f 46/53/10 47/52/10 49/60/10 50/56/10
