# Blender v2.82 (sub 7) OBJ File: 'Dungeon_level_parts.blend'
# www.blender.org
mtllib Column_01.mtl
o column_01_Cube.009
v -0.210044 0.061782 0.210044
v -0.210044 0.061782 -0.210044
v 0.210044 0.061782 0.210044
v 0.210044 0.061782 -0.210044
v -0.210044 0.000000 0.210044
v -0.210044 0.000000 -0.210044
v 0.210044 0.000000 -0.210044
v 0.210044 0.000000 0.210044
v -0.153738 0.051682 0.153738
v -0.153738 0.051682 -0.153738
v 0.153738 0.051682 -0.153738
v 0.153738 0.051682 0.153738
v -0.153738 0.312070 0.153738
v -0.153738 0.312070 -0.153738
v 0.153738 0.312070 -0.153738
v 0.153738 0.312070 0.153738
v -0.210044 0.367768 0.210044
v -0.210044 0.367768 -0.210044
v 0.210044 0.367768 0.210044
v 0.210044 0.367768 -0.210044
v -0.210044 0.305985 0.210044
v -0.210044 0.305985 -0.210044
v 0.210044 0.305985 -0.210044
v 0.210044 0.305985 0.210044
v -0.153738 0.360869 0.153738
v -0.153738 0.360869 -0.153738
v 0.153738 0.360869 -0.153738
v 0.153738 0.360869 0.153738
v -0.114214 0.491580 0.114214
v -0.114214 0.491580 -0.114214
v 0.114214 0.491580 -0.114214
v 0.114214 0.491580 0.114214
v -0.210044 2.056476 0.210044
v -0.210044 2.056476 -0.210044
v 0.210044 2.056476 0.210044
v 0.210044 2.056476 -0.210044
v -0.210044 2.118258 0.210044
v -0.210044 2.118258 -0.210044
v 0.210044 2.118258 -0.210044
v 0.210044 2.118258 0.210044
v -0.153738 2.066576 0.153738
v -0.153738 2.066576 -0.153738
v 0.153738 2.066576 -0.153738
v 0.153738 2.066576 0.153738
v -0.153738 1.806187 0.153738
v -0.153738 1.806187 -0.153738
v 0.153738 1.806187 -0.153738
v 0.153738 1.806187 0.153738
v -0.210044 1.750490 0.210044
v -0.210044 1.750490 -0.210044
v 0.210044 1.750490 0.210044
v 0.210044 1.750490 -0.210044
v -0.210044 1.812272 0.210044
v -0.210044 1.812272 -0.210044
v 0.210044 1.812272 -0.210044
v 0.210044 1.812272 0.210044
v -0.114214 1.626678 0.114214
v -0.114214 1.626678 -0.114214
v 0.114214 1.626678 -0.114214
v 0.114214 1.626678 0.114214
v -0.153738 1.757388 0.153738
v -0.153738 1.757389 -0.153738
v 0.153738 1.757389 -0.153738
v 0.153738 1.757388 0.153738
v -0.151086 1.600756 0.151086
v -0.151086 1.600756 -0.151086
v 0.151086 1.600756 0.151086
v 0.151086 1.600756 -0.151086
v -0.151086 1.632890 0.151086
v -0.151086 1.632890 -0.151086
v 0.151086 1.632890 -0.151086
v 0.151086 1.632890 0.151086
v -0.151086 0.487270 0.151086
v -0.151086 0.487270 -0.151086
v 0.151086 0.487270 0.151086
v 0.151086 0.487270 -0.151086
v -0.151086 0.519404 0.151086
v -0.151086 0.519404 -0.151086
v 0.151086 0.519404 -0.151086
v 0.151086 0.519404 0.151086
v -0.114214 0.513146 0.114214
v -0.114214 0.513146 -0.114214
v 0.114214 0.513146 -0.114214
v 0.114214 0.513146 0.114214
v -0.114214 1.604542 0.114214
v -0.114214 1.604542 -0.114214
v 0.114214 1.604542 -0.114214
v 0.114214 1.604542 0.114214
vt 0.500000 0.000000
vt 0.625000 0.000000
vt 0.625000 0.250000
vt 0.500000 0.250000
vt 0.500000 0.500000
vt 0.625000 0.500000
vt 0.625000 0.750000
vt 0.500000 0.750000
vt 0.625000 1.000000
vt 0.500000 1.000000
vt 0.875000 0.500000
vt 0.875000 0.750000
vt 0.000000 0.000000
vt 0.000000 0.000000
vt 0.000000 0.000000
vt 0.000000 0.000000
vt 0.000000 0.000000
vt 0.000000 0.000000
vt 0.000000 0.000000
vt 0.000000 0.000000
vt 0.500000 0.000000
vt 0.625000 0.000000
vt 0.625000 0.250000
vt 0.500000 0.250000
vt 0.500000 0.500000
vt 0.625000 0.500000
vt 0.625000 0.750000
vt 0.500000 0.750000
vt 0.625000 1.000000
vt 0.500000 1.000000
vt 0.875000 0.500000
vt 0.875000 0.750000
vt 0.000000 0.000000
vt 0.000000 0.000000
vt 0.000000 0.000000
vt 0.000000 0.000000
vt 0.000000 0.000000
vt 0.000000 0.000000
vt 0.000000 0.000000
vt 0.000000 0.000000
vt 0.500000 0.000000
vt 0.500000 0.250000
vt 0.625000 0.250000
vt 0.625000 0.000000
vt 0.500000 0.500000
vt 0.500000 0.750000
vt 0.625000 0.750000
vt 0.625000 0.500000
vt 0.500000 1.000000
vt 0.625000 1.000000
vt 0.500000 0.750000
vt 0.500000 0.500000
vt 0.500000 0.250000
vt 0.500000 0.000000
vt 0.000000 0.000000
vt 0.000000 0.000000
vt 0.000000 0.000000
vt 0.000000 0.000000
vt 0.000000 0.000000
vt 0.000000 0.000000
vt 0.000000 0.000000
vt 0.000000 0.000000
vt 0.625000 0.250000
vt 0.625000 0.000000
vt 0.625000 0.750000
vt 0.625000 0.500000
vt 0.500000 1.000000
vt 0.625000 1.000000
vt 0.000000 0.000000
vt 0.000000 0.000000
vt 0.000000 0.000000
vt 0.000000 0.000000
vt 0.000000 0.000000
vt 0.000000 0.000000
vt 0.000000 0.000000
vt 0.000000 0.000000
vt 0.500000 0.750000
vt 0.500000 0.500000
vt 0.500000 0.250000
vt 0.500000 0.000000
vt 0.625000 0.250000
vt 0.625000 0.000000
vt 0.625000 0.750000
vt 0.625000 0.500000
vt 0.500000 1.000000
vt 0.625000 1.000000
vt 0.500000 0.750000
vt 0.500000 0.500000
vt 0.500000 0.250000
vt 0.500000 0.000000
vt 0.625000 0.250000
vt 0.625000 0.000000
vt 0.625000 0.750000
vt 0.625000 0.500000
vt 0.500000 1.000000
vt 0.625000 1.000000
vt 0.000000 0.000000
vt 0.000000 0.000000
vt 0.000000 0.000000
vt 0.000000 0.000000
vt 0.000000 0.000000
vt 0.000000 0.000000
vt 0.000000 0.000000
vt 0.000000 0.000000
vn -1.0000 0.0000 0.0000
vn 1.0000 0.0000 0.0000
vn 0.0000 0.0000 1.0000
vn 0.0000 1.0000 0.0000
vn 0.0000 0.2894 0.9572
vn -0.9572 0.2894 0.0000
vn 0.9572 0.2894 0.0000
vn -0.9572 -0.2894 0.0000
vn 0.9572 -0.2894 0.0000
vn 0.0000 -0.2894 0.9572
usemtl None
s off
f 5/1/1 1/2/1 2/3/1 6/4/1
f 7/5/2 4/6/2 3/7/2 8/8/2
f 8/8/3 3/7/3 1/9/3 5/10/3
f 4/6/4 2/11/4 1/12/4 3/7/4
f 9/13/1 13/14/1 14/15/1 10/16/1
f 11/17/2 15/18/2 16/19/2 12/20/2
f 12/20/3 16/19/3 13/14/3 9/13/3
f 21/21/1 17/22/1 18/23/1 22/24/1
f 23/25/2 20/26/2 19/27/2 24/28/2
f 24/28/3 19/27/3 17/29/3 21/30/3
f 20/26/4 18/31/4 17/32/4 19/27/4
f 28/33/5 32/34/5 29/35/5 25/36/5
f 25/36/6 29/35/6 30/37/6 26/38/6
f 27/39/7 31/40/7 32/34/7 28/33/7
f 37/41/1 38/42/1 34/43/1 33/44/1
f 39/45/2 40/46/2 35/47/2 36/48/2
f 40/46/3 37/49/3 33/50/3 35/47/3
f 56/51/4 55/52/4 54/53/4 53/54/4
f 41/55/1 42/56/1 46/57/1 45/58/1
f 43/59/2 44/60/2 48/61/2 47/62/2
f 44/60/3 41/55/3 45/58/3 48/61/3
f 53/54/1 54/53/1 50/63/1 49/64/1
f 55/52/2 56/51/2 51/65/2 52/66/2
f 56/51/3 53/67/3 49/68/3 51/65/3
f 40/46/4 39/45/4 38/42/4 37/41/4
f 62/69/8 58/70/8 57/71/8 61/72/8
f 64/73/9 60/74/9 59/75/9 63/76/9
f 61/72/10 57/71/10 60/74/10 64/73/10
f 72/77/4 71/78/4 70/79/4 69/80/4
f 69/80/1 70/79/1 66/81/1 65/82/1
f 71/78/2 72/77/2 67/83/2 68/84/2
f 72/77/3 69/85/3 65/86/3 67/83/3
f 80/87/4 79/88/4 78/89/4 77/90/4
f 77/90/1 78/89/1 74/91/1 73/92/1
f 79/88/2 80/87/2 75/93/2 76/94/2
f 80/87/3 77/95/3 73/96/3 75/93/3
f 81/97/3 84/98/3 88/99/3 85/100/3
f 82/101/1 81/97/1 85/100/1 86/102/1
f 84/98/2 83/103/2 87/104/2 88/99/2
