# Blender v2.82 (sub 7) OBJ File: 'Dungeon_level_parts.blend'
# www.blender.org
mtllib Union_01.mtl
o union_01_Cube.012
v -0.108150 0.265185 0.141597
v -0.108150 0.265185 -0.141597
v 0.108150 0.265185 0.141597
v 0.108150 0.265185 -0.141597
v -0.108150 0.000000 0.141597
v -0.108150 0.000000 -0.141597
v 0.108150 0.000000 -0.141597
v 0.108150 0.000000 0.141597
v 0.000000 0.473948 0.141597
v 0.000000 0.473948 -0.141597
vt 0.500000 0.000000
vt 0.625000 0.000000
vt 0.625000 0.250000
vt 0.500000 0.250000
vt 0.625000 0.500000
vt 0.500000 0.500000
vt 0.625000 0.750000
vt 0.500000 0.750000
vt 0.625000 1.000000
vt 0.500000 1.000000
vt 0.625000 0.500000
vt 0.625000 0.750000
vt 0.625000 0.000000
vt 0.625000 0.250000
vt 0.625000 1.000000
vn -1.0000 0.0000 0.0000
vn 0.0000 0.0000 -1.0000
vn 1.0000 0.0000 0.0000
vn 0.0000 0.0000 1.0000
vn 0.8879 0.4600 0.0000
vn -0.8879 0.4600 0.0000
usemtl None
s off
f 5/1/1 1/2/1 2/3/1 6/4/1
f 6/4/2 2/3/2 4/5/2 7/6/2
f 7/6/3 4/5/3 3/7/3 8/8/3
f 8/8/4 3/7/4 1/9/4 5/10/4
f 3/7/5 4/5/5 10/11/5 9/12/5
f 2/3/6 1/2/6 9/13/6 10/14/6
f 1/9/4 3/7/4 9/15/4
f 4/5/2 2/3/2 10/11/2
