# Blender v2.83 (sub 1) OBJ File: 'ROGER.blend'
# www.blender.org
mtllib Column 1.mtl
v -0.341652 0.051253 0.341652
v -0.351751 3.070071 0.351751
v -0.341652 0.051253 -0.341652
v -0.351751 3.070071 -0.351751
v 0.341652 0.051253 0.341652
v 0.351751 3.070071 0.351751
v 0.341652 0.051253 -0.341652
v 0.351751 3.070071 -0.351751
v -0.282840 0.680153 0.282840
v -0.282840 0.738383 0.282840
v -0.282840 0.680153 -0.282840
v -0.282840 0.738383 -0.282840
v 0.282840 0.680153 0.282840
v 0.282840 0.738383 0.282840
v 0.282840 0.680153 -0.282840
v 0.282840 0.738383 -0.282840
v -0.357295 0.422845 0.357295
v -0.357295 0.496404 0.357295
v -0.357295 0.422845 -0.357295
v -0.357295 0.496404 -0.357295
v 0.357295 0.422845 0.357295
v 0.357295 0.496404 0.357295
v 0.357295 0.422845 -0.357295
v 0.357295 0.496404 -0.357295
v -0.410865 0.017018 0.410865
v -0.410865 0.101606 0.410865
v -0.410865 0.017018 -0.410865
v -0.410865 0.101606 -0.410865
v 0.410865 0.017018 0.410865
v 0.410865 0.101606 0.410865
v 0.410865 0.017018 -0.410865
v 0.410865 0.101606 -0.410865
v -0.282840 2.685075 0.282840
v -0.282840 2.743306 0.282840
v -0.282840 2.685075 -0.282840
v -0.282840 2.743306 -0.282840
v 0.282840 2.685075 0.282840
v 0.282840 2.743306 0.282840
v 0.282840 2.685075 -0.282840
v 0.282840 2.743306 -0.282840
v -0.409634 3.051877 0.409634
v -0.409634 3.125436 0.409634
v -0.409634 3.051877 -0.409634
v -0.409634 3.125436 -0.409634
v 0.409634 3.051877 0.409634
v 0.409634 3.125436 0.409634
v 0.409634 3.051877 -0.409634
v 0.409634 3.125436 -0.409634
v -0.219629 2.770100 0.219629
v -0.219629 2.770100 -0.219629
v 0.219629 2.770100 -0.219629
v 0.219629 2.770100 0.219629
v -0.236475 2.870090 0.236475
v -0.276683 2.970081 0.276683
v -0.276683 2.970081 -0.276683
v -0.236475 2.870090 -0.236475
v 0.276683 2.970081 -0.276683
v 0.236475 2.870090 -0.236475
v 0.276683 2.970081 0.276683
v 0.236475 2.870090 0.236475
v -0.234514 0.634844 -0.234514
v 0.234514 0.634844 -0.234514
v 0.234514 0.634844 0.234514
v -0.234514 0.634844 0.234514
v -0.268191 0.554533 -0.268191
v 0.268191 0.554533 -0.268191
v 0.268191 0.554533 0.268191
v -0.268191 0.554533 0.268191
v -0.341652 0.452806 -0.341652
v 0.341652 0.452806 -0.341652
v 0.341652 0.452806 0.341652
v -0.341652 0.452806 0.341652
v -0.219629 0.704251 0.219629
v -0.219629 0.704251 -0.219629
v 0.219629 0.704251 -0.219629
v 0.219629 0.704251 0.219629
vt 0.227922 0.915969
vt 0.251878 0.969963
vt 0.027372 0.969963
vt 0.051328 0.915969
vt 0.466452 0.915969
vt 0.490409 0.969963
vt 0.265902 0.969962
vt 0.289859 0.915968
vt 0.709304 0.916754
vt 0.733261 0.970748
vt 0.508754 0.970748
vt 0.532711 0.916754
vt 0.950334 0.919358
vt 0.974290 0.973352
vt 0.749784 0.973352
vt 0.773740 0.919358
vt 0.225212 0.364669
vt 0.214465 0.399285
vt 0.064785 0.399286
vt 0.054038 0.364669
vt 0.532905 0.803401
vt 0.516453 0.803401
vt 0.516453 0.561240
vt 0.532905 0.561240
vt 0.516453 0.803401
vt 0.500000 0.803401
vt 0.500000 0.561240
vt 0.516453 0.561240
vt 0.483548 0.803401
vt 0.467095 0.803401
vt 0.467095 0.561240
vt 0.483547 0.561240
vt 0.500000 0.561240
vt 0.500000 0.803401
vt 0.483548 0.803401
vt 0.769804 0.402225
vt 0.769804 0.616629
vt 0.715657 0.616629
vt 0.715657 0.402225
vt 0.769804 0.643409
vt 0.769804 0.857813
vt 0.715657 0.857813
vt 0.715657 0.643409
vt 0.566223 0.180930
vt 0.532751 0.180930
vt 0.532751 0.035885
vt 0.566223 0.035885
vt 0.499280 0.180930
vt 0.465808 0.180930
vt 0.465808 0.035885
vt 0.499280 0.035885
vt 0.465808 0.180930
vt 0.432337 0.180930
vt 0.432336 0.035885
vt 0.465807 0.035885
vt 0.499280 0.035885
vt 0.532751 0.035885
vt 0.499280 0.180930
vt 0.598708 0.034461
vt 0.661313 0.034461
vt 0.661313 0.182011
vt 0.598708 0.182011
vt 0.697841 0.044682
vt 0.821652 0.044682
vt 0.821652 0.168493
vt 0.697841 0.168493
vt 0.398304 0.188757
vt 0.358133 0.188757
vt 0.358133 0.028070
vt 0.398304 0.028070
vt 0.358133 0.188757
vt 0.317961 0.188757
vt 0.317961 0.028070
vt 0.358132 0.028070
vt 0.277789 0.188757
vt 0.237618 0.188757
vt 0.237617 0.028070
vt 0.277789 0.028070
vt 0.317961 0.028070
vt 0.317961 0.188757
vt 0.277789 0.188757
vt 0.199458 0.184341
vt 0.044101 0.184341
vt 0.044101 0.028984
vt 0.199458 0.028984
vt 0.287354 0.625790
vt 0.228333 0.625790
vt 0.228333 0.844751
vt 0.287354 0.844751
vt 0.276891 0.578084
vt 0.260796 0.578084
vt 0.260796 0.460591
vt 0.276891 0.460591
vt 0.244702 0.460591
vt 0.260796 0.578084
vt 0.244702 0.578084
vt 0.228608 0.578084
vt 0.228608 0.460591
vt 0.244702 0.460591
vt 0.276891 0.460591
vt 0.292985 0.460591
vt 0.292985 0.578084
vt 0.010967 0.400780
vt 0.046765 0.400780
vt 0.046765 0.593286
vt 0.010967 0.593286
vt 0.470013 0.423177
vt 0.530350 0.423177
vt 0.530350 0.531529
vt 0.470013 0.531529
vt 0.951892 0.817732
vt 0.985419 0.817732
vt 0.985419 0.734913
vt 0.951892 0.734913
vt 0.985419 0.652093
vt 0.951892 0.652093
vt 0.985419 0.569274
vt 0.951892 0.569274
vt 0.985419 0.486455
vt 0.951892 0.486455
vt 0.016228 0.638235
vt 0.047032 0.638235
vt 0.047032 0.885791
vt 0.016228 0.885791
vt 0.845086 0.167218
vt 0.845086 0.045331
vt 0.966973 0.045331
vt 0.966973 0.167218
vt 0.932127 0.422075
vt 0.932127 0.835214
vt 0.791947 0.835214
vt 0.791947 0.422075
vt 0.691097 0.419471
vt 0.691097 0.832610
vt 0.550918 0.832610
vt 0.550918 0.419471
vt 0.448245 0.418686
vt 0.448245 0.831825
vt 0.308066 0.831825
vt 0.308066 0.418686
vt 0.209715 0.418685
vt 0.209715 0.831825
vt 0.069535 0.831825
vt 0.069535 0.418686
vt 0.937502 0.877642
vt 0.786572 0.877641
vt 0.696473 0.875037
vt 0.545542 0.875037
vt 0.453621 0.874252
vt 0.302690 0.874252
vt 0.215090 0.874252
vt 0.064160 0.874252
vt 0.463743 0.364669
vt 0.452995 0.399285
vt 0.303316 0.399286
vt 0.292568 0.364669
vt 0.706595 0.365454
vt 0.695847 0.400070
vt 0.546168 0.400071
vt 0.535421 0.365454
vt 0.947624 0.368059
vt 0.936877 0.402675
vt 0.787197 0.402675
vt 0.776450 0.368059
vt 0.971067 0.330134
vt 0.753007 0.330134
vt 0.730038 0.327530
vt 0.511978 0.327530
vt 0.487186 0.326744
vt 0.269125 0.326745
vt 0.248655 0.326744
vt 0.030595 0.326744
vt 0.248655 0.214449
vt 0.030595 0.214449
vt 0.487186 0.214449
vt 0.269125 0.214449
vt 0.730038 0.215235
vt 0.511978 0.215235
vt 0.971067 0.217839
vt 0.753007 0.217839
vn -0.7997 -0.6004 0.0000
vn 0.0000 -0.6004 -0.7997
vn 0.7997 -0.6004 0.0000
vn 0.0000 -0.6004 0.7997
vn -0.9222 0.3867 -0.0000
vn -1.0000 0.0000 0.0000
vn 0.0000 0.0000 -1.0000
vn 1.0000 0.0000 0.0000
vn 0.0000 0.0000 1.0000
vn 0.0000 -1.0000 0.0000
vn 0.0000 1.0000 0.0000
vn 0.0000 -0.1661 0.9861
vn 0.0000 -0.3731 0.9278
vn 0.9861 -0.1661 0.0000
vn 0.9278 -0.3731 0.0000
vn 0.0000 -0.1661 -0.9861
vn 0.0000 -0.3731 -0.9278
vn -0.9861 -0.1661 0.0000
vn -0.9278 -0.3731 0.0000
vn 0.0000 0.3867 -0.9222
vn 0.9222 0.3867 0.0000
vn 0.0000 0.3867 0.9222
vn 0.0000 0.5854 0.8107
vn 0.8107 0.5854 0.0000
vn 0.0000 0.5854 -0.8107
vn -0.8107 0.5854 -0.0000
vn -0.9778 0.2097 -0.0000
vn 0.0000 0.2097 -0.9778
vn 0.9778 0.2097 0.0000
vn 0.0000 0.2097 0.9778
usemtl Material
s off
f 54/1/1 2/2/1 4/3/1 55/4/1
f 55/5/2 4/6/2 8/7/2 57/8/2
f 57/9/3 8/10/3 6/11/3 59/12/3
f 59/13/4 6/14/4 2/15/4 54/16/4
f 68/17/5 64/18/5 61/19/5 65/20/5
f 9/21/6 10/22/6 12/23/6 11/24/6
f 11/25/7 12/26/7 16/27/7 15/28/7
f 15/29/8 16/30/8 14/31/8 13/32/8
f 13/32/9 14/33/9 10/34/9 9/35/9
f 11/36/10 15/37/10 13/38/10 9/39/10
f 16/40/11 12/41/11 10/42/11 14/43/11
f 17/44/6 18/45/6 20/46/6 19/47/6
f 19/48/7 20/49/7 24/50/7 23/51/7
f 23/52/8 24/53/8 22/54/8 21/55/8
f 21/56/9 22/57/9 18/45/9 17/58/9
f 19/59/10 23/60/10 21/61/10 17/62/10
f 24/63/11 20/64/11 18/65/11 22/66/11
f 25/67/6 26/68/6 28/69/6 27/70/6
f 27/71/7 28/72/7 32/73/7 31/74/7
f 31/75/8 32/76/8 30/77/8 29/78/8
f 29/78/9 30/79/9 26/80/9 25/81/9
f 27/82/10 31/83/10 29/84/10 25/85/10
f 32/86/11 28/87/11 26/88/11 30/89/11
f 33/90/6 34/91/6 36/92/6 35/93/6
f 35/94/7 36/92/7 40/95/7 39/96/7
f 39/96/8 40/97/8 38/98/8 37/99/8
f 37/100/9 38/101/9 34/102/9 33/90/9
f 35/103/10 39/104/10 37/105/10 33/106/10
f 40/107/11 36/108/11 34/109/11 38/110/11
f 41/111/6 42/112/6 44/113/6 43/114/6
f 43/114/7 44/113/7 48/115/7 47/116/7
f 47/116/8 48/115/8 46/117/8 45/118/8
f 45/118/9 46/117/9 42/119/9 41/120/9
f 43/121/10 47/122/10 45/123/10 41/124/10
f 48/125/11 44/126/11 42/127/11 46/128/11
f 76/129/9 52/130/9 49/131/9 73/132/9
f 75/133/8 51/134/8 52/135/8 76/136/8
f 74/137/7 50/138/7 51/139/7 75/140/7
f 73/141/6 49/142/6 50/143/6 74/144/6
f 52/130/12 60/145/12 53/146/12 49/131/12
f 60/145/13 59/13/13 54/16/13 53/146/13
f 51/134/14 58/147/14 60/148/14 52/135/14
f 58/147/15 57/9/15 59/12/15 60/148/15
f 50/138/16 56/149/16 58/150/16 51/139/16
f 56/149/17 55/5/17 57/8/17 58/150/17
f 49/142/18 53/151/18 56/152/18 50/143/18
f 53/151/19 54/1/19 55/4/19 56/152/19
f 65/153/20 61/154/20 62/155/20 66/156/20
f 66/157/21 62/158/21 63/159/21 67/160/21
f 67/161/22 63/162/22 64/163/22 68/164/22
f 71/165/23 67/161/23 68/164/23 72/166/23
f 70/167/24 66/157/24 67/160/24 71/168/24
f 69/169/25 65/153/25 66/156/25 70/170/25
f 72/171/26 68/17/26 65/20/26 69/172/26
f 1/173/6 72/171/6 69/172/6 3/174/6
f 3/175/7 69/169/7 70/170/7 7/176/7
f 7/177/8 70/167/8 71/168/8 5/178/8
f 5/179/9 71/165/9 72/166/9 1/180/9
f 64/18/27 73/141/27 74/144/27 61/19/27
f 61/154/28 74/137/28 75/140/28 62/155/28
f 62/158/29 75/133/29 76/136/29 63/159/29
f 63/162/30 76/129/30 73/132/30 64/163/30
