# Blender v2.82 (sub 7) OBJ File: 'Dungeon_level_parts.blend'
# www.blender.org
mtllib Handrail_01.mtl
o handrail_01_Cube.014
v -0.084729 0.084729 0.084729
v -0.084729 0.084729 -0.142597
v 0.084729 0.084729 0.084729
v 0.084729 0.084729 -0.142597
v -0.084729 0.000000 0.084729
v -0.084729 0.000000 -0.142597
v 0.084729 0.000000 -0.142597
v 0.084729 0.000000 0.084729
v -0.060136 0.073441 0.060136
v -0.060136 0.073441 -0.118004
v 0.060136 0.073441 -0.118004
v 0.060136 0.073441 0.060136
v -0.060136 0.581086 0.060136
v -0.060136 0.581086 -0.118004
v 0.060136 0.581086 -0.118004
v 0.060136 0.581086 0.060136
v -0.057240 0.325400 -0.121831
v -0.057240 0.325400 0.056308
v 0.063031 0.325400 0.056308
v 0.063031 0.325400 -0.121831
v -0.084729 0.655842 0.084729
v -0.084729 0.655842 -0.142597
v 0.084729 0.655842 0.084729
v 0.084729 0.655842 -0.142597
v -0.108606 0.571113 0.108606
v -0.108606 0.571113 -0.166474
v 0.108606 0.571113 -0.166474
v 0.108606 0.571113 0.108606
v 0.900844 0.084729 0.084729
v 0.900844 0.084729 -0.142597
v 0.900844 0.000000 0.084729
v 0.900844 0.000000 -0.142597
v 1.000000 0.084729 -0.142597
v 1.000000 0.084729 0.084729
v 1.000000 0.000000 0.084729
v 1.000000 0.076594 0.059214
v 0.919413 0.076594 -0.142597
v 0.919413 0.076594 0.059214
v 1.000000 0.581086 0.059214
v 0.919413 0.581086 -0.142597
v 0.919413 0.581086 0.059214
v 0.924876 0.326977 0.055387
v 1.000000 0.326976 0.055387
v 0.924876 0.326977 -0.146424
v 0.900844 0.652432 0.084729
v 0.900844 0.652432 -0.142597
v 0.869889 0.567703 0.109494
v 0.869889 0.567703 -0.142597
v 1.000000 0.652432 -0.142597
v 1.000000 0.652432 0.084729
v 1.000000 0.567703 0.109494
v -0.900844 0.084729 0.084729
v -0.900844 0.084729 -0.142597
v -0.900844 0.000000 0.084729
v -0.900844 0.000000 -0.142597
v -1.000000 0.084729 -0.142597
v -1.000000 0.084729 0.084729
v -1.000000 0.000000 0.084729
v -1.000000 0.076594 0.059214
v -0.919413 0.076594 -0.142597
v -0.919413 0.076594 0.059214
v -1.000000 0.581086 0.059214
v -0.919413 0.581086 -0.142597
v -0.919413 0.581086 0.059214
v -0.924876 0.326977 0.055387
v -1.000000 0.326976 0.055387
v -0.924876 0.326977 -0.146424
v -0.900844 0.652432 0.084729
v -0.900844 0.652432 -0.142597
v -0.869889 0.567703 0.109494
v -0.869889 0.567703 -0.142597
v -1.000000 0.652432 -0.142597
v -1.000000 0.652432 0.084729
v -1.000000 0.567703 0.109494
v 1.000000 0.551457 -0.141321
v 1.000000 0.551457 0.045375
v 1.000000 0.466728 0.037451
v -1.000000 0.551457 -0.141321
v -1.000000 0.551457 0.045375
v -1.000000 0.466728 0.037451
v 0.000000 0.551457 0.045375
v 0.000000 0.466728 0.037451
v 0.000000 0.551457 -0.141321
v 0.500000 0.543983 0.031161
v 0.500000 0.459254 0.023237
v 0.500000 0.543983 -0.145426
v -0.500000 0.543983 0.030426
v -0.500000 0.459254 0.022502
v -0.500000 0.543983 -0.142792
vt 0.500000 0.000000
vt 0.625000 0.000000
vt 0.625000 0.250000
vt 0.500000 0.250000
vt 0.500000 0.500000
vt 0.625000 0.500000
vt 0.625000 0.750000
vt 0.500000 0.750000
vt 0.625000 1.000000
vt 0.500000 1.000000
vt 0.875000 0.500000
vt 0.875000 0.750000
vt 0.000000 0.000000
vt 0.000000 0.000000
vt 0.000000 0.000000
vt 0.000000 0.000000
vt 0.000000 0.000000
vt 0.000000 0.000000
vt 0.000000 0.000000
vt 0.000000 0.000000
vt 0.000000 0.000000
vt 0.000000 0.000000
vt 0.000000 0.000000
vt 0.000000 0.000000
vt 0.500000 0.000000
vt 0.625000 0.000000
vt 0.625000 0.250000
vt 0.500000 0.250000
vt 0.500000 0.500000
vt 0.625000 0.500000
vt 0.625000 0.750000
vt 0.500000 0.750000
vt 0.625000 1.000000
vt 0.500000 1.000000
vt 0.875000 0.500000
vt 0.875000 0.750000
vt 0.500000 0.000000
vt 0.625000 0.000000
vt 0.625000 0.250000
vt 0.500000 0.250000
vt 0.500000 0.875000
vt 0.625000 0.875000
vt 0.625000 1.000000
vt 0.500000 1.000000
vt 0.750000 0.500000
vt 0.875000 0.500000
vt 0.875000 0.750000
vt 0.750000 0.750000
vt 0.000000 0.000000
vt 0.000000 0.000000
vt 0.000000 0.000000
vt 0.000000 0.000000
vt 0.000000 0.000000
vt 0.000000 0.000000
vt 0.000000 0.000000
vt 0.000000 0.000000
vt 0.000000 0.000000
vt 0.500000 0.000000
vt 0.625000 0.000000
vt 0.625000 0.250000
vt 0.500000 0.250000
vt 0.500000 0.875000
vt 0.625000 0.875000
vt 0.625000 1.000000
vt 0.500000 1.000000
vt 0.750000 0.500000
vt 0.875000 0.500000
vt 0.875000 0.750000
vt 0.750000 0.750000
vt 0.500000 0.000000
vt 0.500000 0.250000
vt 0.625000 0.250000
vt 0.625000 0.000000
vt 0.500000 0.875000
vt 0.500000 1.000000
vt 0.625000 1.000000
vt 0.625000 0.875000
vt 0.750000 0.500000
vt 0.750000 0.750000
vt 0.875000 0.750000
vt 0.875000 0.500000
vt 0.000000 0.000000
vt 0.000000 0.000000
vt 0.000000 0.000000
vt 0.000000 0.000000
vt 0.000000 0.000000
vt 0.000000 0.000000
vt 0.000000 0.000000
vt 0.000000 0.000000
vt 0.000000 0.000000
vt 0.500000 0.000000
vt 0.500000 0.250000
vt 0.625000 0.250000
vt 0.625000 0.000000
vt 0.500000 0.875000
vt 0.500000 1.000000
vt 0.625000 1.000000
vt 0.625000 0.875000
vt 0.750000 0.500000
vt 0.750000 0.750000
vt 0.875000 0.750000
vt 0.875000 0.500000
vt 0.000000 0.000000
vt 0.000000 0.000000
vt 0.000000 0.000000
vt 0.000000 0.000000
vt 0.000000 0.000000
vt 0.000000 0.000000
vt 0.000000 0.000000
vt 0.000000 0.000000
vt 0.000000 0.000000
vt 0.000000 0.000000
vt 0.000000 0.000000
vt 0.000000 0.000000
vt 0.000000 0.000000
vt 0.000000 0.000000
vt 0.000000 0.000000
vn -1.0000 0.0000 0.0000
vn 1.0000 0.0000 0.0000
vn 0.0000 0.0000 1.0000
vn 0.0000 1.0000 0.0000
vn -0.9999 -0.0113 0.0000
vn 0.9999 0.0113 -0.0000
vn 0.0000 -0.0150 0.9999
vn 0.0000 0.0152 0.9999
vn 0.9999 -0.0115 0.0000
vn -0.9999 0.0115 0.0000
vn -0.9625 0.2712 0.0000
vn 0.9625 0.2712 0.0000
vn 0.0000 0.2712 0.9625
vn 0.0000 -0.0151 0.9999
vn -0.9998 -0.0215 0.0000
vn -0.9998 0.0218 0.0000
vn -0.0000 0.0153 0.9999
vn -0.9393 0.3432 0.0000
vn 0.0000 0.2805 0.9598
vn 0.9998 -0.0215 0.0000
vn 0.9998 0.0218 0.0000
vn 0.9393 0.3432 0.0000
vn 0.0284 -0.0931 0.9953
vn 0.0149 0.9999 0.0000
vn 0.0269 -0.0931 0.9953
vn -0.0269 -0.0931 0.9953
vn -0.0149 0.9999 0.0000
vn -0.0284 -0.0931 0.9953
usemtl None
s off
f 5/1/1 1/2/1 2/3/1 6/4/1
f 7/5/2 4/6/2 3/7/2 8/8/2
f 8/8/3 3/7/3 1/9/3 5/10/3
f 4/6/4 2/11/4 1/12/4 3/7/4
f 18/13/5 13/14/5 14/15/5 17/16/5
f 20/17/6 15/18/6 16/19/6 19/20/6
f 19/20/7 16/19/7 13/14/7 18/13/7
f 12/21/8 19/20/8 18/13/8 9/22/8
f 11/23/9 20/17/9 19/20/9 12/21/9
f 9/22/10 18/13/10 17/16/10 10/24/10
f 25/25/11 21/26/11 22/27/11 26/28/11
f 27/29/12 24/30/12 23/31/12 28/32/12
f 28/32/13 23/31/13 21/33/13 25/34/13
f 24/30/4 22/35/4 21/36/4 23/31/4
f 31/37/1 29/38/1 30/39/1 32/40/1
f 35/41/3 34/42/3 29/43/3 31/44/3
f 33/45/4 30/46/4 29/47/4 34/48/4
f 43/49/14 39/50/14 41/51/14 42/52/14
f 42/52/15 41/51/15 40/53/15 44/54/15
f 38/55/16 42/52/16 44/54/16 37/56/16
f 36/57/17 43/49/17 42/52/17 38/55/17
f 47/58/18 45/59/18 46/60/18 48/61/18
f 51/62/19 50/63/19 45/64/19 47/65/19
f 49/66/4 46/67/4 45/68/4 50/69/4
f 54/70/2 55/71/2 53/72/2 52/73/2
f 58/74/3 54/75/3 52/76/3 57/77/3
f 56/78/4 57/79/4 52/80/4 53/81/4
f 66/82/14 65/83/14 64/84/14 62/85/14
f 65/83/20 67/86/20 63/87/20 64/84/20
f 61/88/21 60/89/21 67/86/21 65/83/21
f 59/90/17 61/88/17 65/83/17 66/82/17
f 70/91/22 71/92/22 69/93/22 68/94/22
f 74/95/19 70/96/19 68/97/19 73/98/19
f 72/99/4 73/100/4 68/101/4 69/102/4
f 88/103/23 87/104/23 79/105/23 80/106/23
f 89/107/24 78/108/24 79/105/24 87/104/24
f 86/109/24 83/110/24 81/111/24 84/112/24
f 85/113/25 84/112/25 81/111/25 82/114/25
f 77/115/26 76/116/26 84/112/26 85/113/26
f 75/117/27 86/109/27 84/112/27 76/116/27
f 83/110/27 89/107/27 87/104/27 81/111/27
f 82/114/28 81/111/28 87/104/28 88/103/28
